<?xml version="1.0" encoding="UTF-8"?>
<svg id="Capa_2" data-name="Capa 2" xmlns="http://www.w3.org/2000/svg" viewBox="0 0 407.5 413.73">
  <defs>
    <style>
      .cls-1 {
        fill: #dfdfdf;
      }

      .cls-2 {
        fill: #74c62e;
      }

      .cls-3 {
        fill: #fff;
      }

      .cls-4 {
        fill: #fcb341;
      }

      .cls-5 {
        fill: #bcbcbc;
      }

      .cls-6 {
        fill: #424242;
      }

      .cls-7 {
        fill: #dededf;
      }
    </style>
  </defs>
  <g id="Check">
    <g>
      <g>
        <g>
          <path class="cls-1" d="M222.91.52v61.74c1.29,12,10.1,20.81,22.09,22.08h61.74c1.47,36.84-1.1,74.62,0,111.54-14.96-5.04-36.12-4.99-50.9.75-1.67-3.1-5.23-4.35-8.58-4.52h-120.58c-14.53,1.28-15.7,20.28-2.04,23.8l104.24.18c-5.1,5.75-11.78,16.71-14.22,23.95l-89.38.07c-13.59,2.68-13.59,21.14,0,23.82l85.64.07c0,35.52,27.87,68.24,63.63,71.86l-174.69-.1c-17.04-1.74-30.3-14.95-32.57-31.81l-.12-270.16c1.6-17.49,15.16-31.26,32.6-33.27,40.77,1.19,82.47-1.63,123.12-.01ZM124.66,96.51c-13.43,3.39-12.45,21.9,1.32,23.78h122.02c14.49-2.05,14.49-21.91,0-23.96l-123.33.18ZM124.66,144.42c-13.43,3.39-12.45,21.9,1.32,23.78h122.02c14.49-2.05,14.49-21.91,0-23.96l-123.33.18Z"/>
          <path class="cls-5" d="M306.75,84.35h-61.74c-11.99-1.29-20.81-10.1-22.08-22.09V.52c8.18.33,14.01.92,21.19,5.37,16.61,17.31,39.4,34.99,54.38,53.41,6.64,8.16,7.85,14.81,8.26,25.05Z"/>
          <path class="cls-6" d="M124.66,96.51l123.33-.18c14.49,2.05,14.49,21.91,0,23.96h-122.02c-13.76-1.88-14.74-20.39-1.32-23.78Z"/>
          <path class="cls-6" d="M124.66,144.42l123.33-.18c14.49,2.05,14.49,21.91,0,23.96h-122.02c-13.76-1.88-14.74-20.39-1.32-23.78Z"/>
          <path class="cls-6" d="M255.85,196.63c-7.63,2.96-21.29,13.09-26.95,19.46l-104.24-.18c-13.67-3.52-12.49-22.52,2.04-23.8h120.58c3.34.17,6.91,1.43,8.58,4.52Z"/>
          <path class="cls-6" d="M214.68,240.05c-2.41,7.15-3.74,16.39-3.74,23.95l-85.64-.07c-13.59-2.68-13.59-21.14,0-23.82l89.38-.07Z"/>
          <path class="cls-7" d="M294.77,252.03c9.45-.49,23.7-1.43,24.02,11.6.33,13.58-14.28,12.96-24.02,12.35.49,9.45,1.43,23.7-11.6,24.02-13.58.33-12.96-14.28-12.35-24.02-9.45.49-23.7,1.43-24.02-11.6s14.28-12.96,24.02-12.35c-.9-10.34-.71-25.62,13.77-23.9,11.92,1.42,10.43,15.08,10.17,23.9Z"/>
        </g>
        <g>
          <path class="cls-4" d="M83.84,148.98l4.38,3.48,18.06,34.33c7.76,1.16,15.43-.44,23.21-.38,62.19.49,124.8.26,187.13.75,1.25,0,2.5-.01,3.74,0,6.06,2.52,9.62,7.26,10.48,13.84l.03,170.7c-.76,7.07-4.56,12.21-11.26,14.57H11.98c-6.54-2.54-10.96-6.6-11.98-13.85v-213.34c.2-4.28,3.83-9.08,8.03-9.93,6.16-1.25,18.67-.11,25.65-.17,5.98-.05,11.99.03,17.96,0,7.22-.03,14.48-.03,21.71,0,3.52.02,7.33-.03,10.48,0Z"/>
          <path class="cls-4" d="M342.83,386.27h-23.2c6.69-2.36,10.5-7.5,11.26-14.57l-.03-170.7c-.87-6.59-4.42-11.32-10.48-13.84,12.86.13,30.86-4,34.37,12.42l.07,172.85c-1.02,7.25-5.44,11.3-11.98,13.85Z"/>
          <path class="cls-4" d="M115.28,157.97c2.18,3.71,3.97,8.1,5.99,11.98,2.82,5.42,6.3,10.59,8.23,16.47-7.78-.06-15.45,1.55-23.21.38l-18.06-34.33-4.38-3.48c6.26.05,17.77-.99,23.26.32,4.05.96,6.29,5.45,8.18,8.66Z"/>
        </g>
      </g>
      <g>
        <path class="cls-2" d="M407.5,323.45c0,49.86-40.4,90.28-90.27,90.28s-90.29-40.42-90.29-90.28,40.43-90.28,90.29-90.28,90.27,40.42,90.27,90.28Z"/>
        <polygon class="cls-3" points="306.81 379.05 268.82 347.8 284.11 329.2 302.04 343.95 348.13 278.34 367.83 292.17 306.81 379.05"/>
      </g>
    </g>
  </g>
</svg>