<?xml version="1.0" encoding="UTF-8"?>
<svg id="Capa_2" data-name="Capa 2" xmlns="http://www.w3.org/2000/svg" viewBox="0 0 482.7 414.44">
  <defs>
    <style>
      .cls-1 {
        fill: #fcb341;
      }

      .cls-2 {
        fill: #bcbcbc;
      }

      .cls-3 {
        fill: #424242;
      }

      .cls-4 {
        fill: #f3d2b8;
      }
    </style>
  </defs>
  <g id="Check">
    <g>
      <path class="cls-1" d="M195.7,137.05c-.18,22.97-.88,47.27,0,70.11l-123.14.07c-16.49,4.34-15.27,25.92,1.99,27.78,39.07,4.19,85.45-3.14,125.28,0,2,.67,3.68,2.51,5.62,3.15,7.41,2.42,67.86,2.07,78.46,1.03,3.7-.36,6.97-1.6,9.74-4.18,5.86-.17,13.34,7.32,18.09,8.2,12.66,2.36,40.6-.02,55.12.05-.49,38.01,1,76.35-.76,114.2-1.21,2.65-4.19,3.46-6.92,3.39l-251.38.2c-2.29.51-4.65,1.28-5.76,3.52l-22.8,47.31c-2.74,2.81-6.28,3.41-9.72,1.39-5.97-3.51-15.64-43.77-22.3-50.9-8.78-4.75-38.98,1.78-45.33-3.13-.81-.62-1.58-1.2-1.88-2.25l.56-216.59c1.21-2.65,4.19-3.46,6.92-3.39l188.22.05ZM73.79,263.11c-18.7,2.73-16.65,27.61,1.81,28.59l215.48.02c19.5-2.2,19.49-26.68,0-28.88l-217.29.27Z"/>
      <rect class="cls-3" x="60.72" y="203.37" width="247.01" height="35.39" rx="12" ry="12"/>
      <rect class="cls-3" x="60.72" y="258.02" width="247.01" height="35.39" rx="12" ry="12"/>
      <path class="cls-4" d="M296.74,93.74c2.14.27,3.89-.07,5.89-.8,4.03-1.47,32.1-13.61,33.33-15.14l25.17-68.66c8.83-15.09,29.23-9.87,36.47,3.85,4.71,8.92,4.05,34.44,3.32,45.23-.45,6.67-2.57,13.41-3.14,20.06h66.5c.69,0,5.61,1.99,6.75,2.52,17.99,8.47,13.8,35.01-5.2,38.73l6.73,3.05c16.62,10.42,11.54,33.77-6.74,38.7,14.8,2.61,21.87,20.37,12.93,32.51-1.78,2.41-8.54,8.22-11.37,8.22h-29.39c.94,1.98,4.18,2.19,6.12,3.68,15.8,12.08,9.69,35.88-9.69,37.61-20.34,1.81-46.58.05-67.58-.04-14.51-.06-42.45,2.31-55.12-.05-4.75-.88-12.23-8.37-18.09-8.2,2.2-2.04,4.46-5.58,4.17-8.72-2.69-41.07,3.42-86.36,0-126.92-.15-1.75-.38-4.06-1.07-5.62Z"/>
      <rect class="cls-2" x="192.46" y="78.65" width="107.66" height="165.59" rx="12" ry="12"/>
    </g>
  </g>
</svg>