<?xml version="1.0" encoding="UTF-8"?>
<svg id="Capa_2" data-name="Capa 2" xmlns="http://www.w3.org/2000/svg" viewBox="0 0 470.54 419.24">
  <defs>
    <style>
      .cls-1 {
        fill: #ff828a;
      }

      .cls-2 {
        fill: #bc7f72;
      }

      .cls-3 {
        fill: #dfeaf7;
      }

      .cls-4 {
        fill: #ffb042;
      }

      .cls-5 {
        fill: #fff;
      }

      .cls-6 {
        fill: #3d71f2;
      }

      .cls-7 {
        fill: #ffb3ae;
      }

      .cls-8 {
        fill: #ff7a72;
      }

      .cls-9 {
        fill: #002d53;
      }

      .cls-10 {
        fill: #d18c7e;
      }

      .cls-11 {
        fill: #40c1b0;
      }
    </style>
  </defs>
  <g id="Check">
    <g>
      <path class="cls-3" d="M470.52,279.67c1.04,38.85-37.81,76.39-81.07,101.83-15.15,8.94-30.78,16.35-45.5,21.85-47.35,17.71-87.18,16.35-116.6,15.42-.44-.05-.82-.05-1.25-.05-.93-.05-1.91-.05-2.83-.11-48.71-2.02-98.02-12.53-141.39-35.25-1.14-.6-2.29-1.2-3.43-1.85C41.07,361.51,3.75,332.96.26,287.46c-1.74-22.39,5.34-45.17,18.8-63.09,14.55-19.34,35.8-30.19,54.98-44.19,13.51-9.86,19.51-24.14,25.83-38.96,4.41-10.3,9.21-20.49,14.71-30.29,3.05-5.34,6.21-10.52,9.7-15.58,24.36-35.47,64.67-61.46,107.39-67.56,44.51-6.32,87.01,14.44,116.16,47.84,17.6,20.1,29.69,44.95,34.93,71.16,4.3,21.41-.11,48.22,16.56,65,19.34,19.45,47.13,13.68,62.88,37.92,7.85,12.04,8.17,24.63,8.34,29.97Z"/>
      <g>
        <path class="cls-9" d="M313.78,201.97c39.54-33.88,51.3-95.74,24.25-135.54-15.59-22.95-39.63-32.01-51.43-35.5-4.91-7.15-17.35-23.03-38.41-28.82-36.73-10.09-68.61,19.07-73.12,23.2-42.21,38.62-58.09,132.93-.47,179.01,37.44,29.94,98.46,32.54,139.17-2.34Z"/>
        <g>
          <rect class="cls-7" x="217.77" y="145.74" width="45.33" height="55.9"/>
          <path class="cls-8" d="M263.1,145.74v26.92c-23.92,1.74-37.6-1.36-45.33-6.1v-20.81h45.33Z"/>
          <path class="cls-7" d="M307.87,112.17c-4.32,11.51-14.84,18.2-23.48,14.96-8.65-3.25-12.15-15.21-7.83-26.72,4.32-11.51,14.84-18.2,23.48-14.96,8.65,3.25,12.15,15.21,7.83,26.72Z"/>
          <path class="cls-7" d="M180.27,112.17c4.32,11.51,14.84,18.2,23.48,14.96,8.65-3.25,12.15-15.21,7.83-26.72-4.32-11.51-14.84-18.2-23.48-14.96-8.65,3.25-12.15,15.21-7.83,26.72Z"/>
          <path class="cls-7" d="M286.25,101.51c7.29,20.06-15.72,60.1-45.16,60.1-24.94,0-45.16-26.91-45.16-60.1,0-36.16,36.28-64.51,45.16-60.1,3.57,1.77.64,7.78,3.85,18.1,7.67,24.61,35.1,24.91,41.31,42Z"/>
        </g>
        <path class="cls-4" d="M367.68,358.78H109.01v-50.39c0-71.43,57.9-129.33,129.33-129.33h0c71.43,0,129.33,57.9,129.33,129.33v50.39Z"/>
      </g>
      <g>
        <g>
          <rect class="cls-6" x="335" y="278.39" width="71.23" height="81.09"/>
          <path class="cls-6" d="M428.91,319.21c0,7.06-5.76,12.78-12.82,12.78-3.98,0-7.53-1.81-9.86-4.65v17.2c3.04,1.22,6.39,1.85,9.86,1.85,15.03,0,27.21-12.15,27.21-27.17s-12.19-27.21-27.21-27.21c-3.47,0-6.82.63-9.86,1.85v17.2c2.33-2.84,5.88-4.65,9.86-4.65,7.06,0,12.82,5.72,12.82,12.82Z"/>
        </g>
        <rect class="cls-10" x="24.01" y="359.48" width="434.16" height="22.02"/>
        <g>
          <path class="cls-11" d="M98.53,309.52c-1.49-38.47-.95-86.98,11.8-89.72.44-.09,1.96-.4,3.5.39,10.32,5.32-1.59,48.63-15.29,89.33Z"/>
          <path class="cls-11" d="M98.53,309.52c-18.81-32.98-27.88-38.97-32.6-37.51-1.78.55-3.06,2.21-3.54,3.75-3.26,10.65,27.79,28.97,36.14,33.75Z"/>
          <path class="cls-11" d="M98.53,309.52s17.55-50.51,29.68-47.51c12.13,3-29.68,47.51-29.68,47.51Z"/>
          <polygon class="cls-1" points="70.98 358.78 119.01 358.78 123.27 299.98 66.73 299.98 70.98 358.78"/>
        </g>
        <g>
          <rect class="cls-5" x="139.59" y="228.03" width="197.52" height="131.44" rx="10.9" ry="10.9"/>
          <circle class="cls-3" cx="238.35" cy="297.82" r="15.25"/>
        </g>
        <path class="cls-2" d="M389.45,381.5c-15.15,8.94-30.78,16.35-45.5,21.85-47.35,17.71-87.18,16.35-116.6,15.42-.44-.05-.82-.05-1.25-.05-.93-.05-1.91-.05-2.83-.11-48.71-2.02-98.02-12.53-141.39-35.25-1.14-.6-2.29-1.2-3.43-1.85h311Z"/>
      </g>
    </g>
  </g>
</svg>